<svg width="110" height="22" viewBox="0 0 110 22" fill="none" xmlns="http://www.w3.org/2000/svg">
<path d="M104.665 19.25L103.166 12.8068L108.166 8.47371L101.575 7.90812L98.9997 1.83337L96.4248 7.90812L89.833 8.47371L94.8334 12.8068L93.3347 19.25L98.9997 15.8327L104.665 19.25Z" fill="#6E38F7"/>
<path d="M82.6647 19.25L81.1659 12.8068L86.1663 8.47371L79.5746 7.90812L76.9997 1.83337L74.4248 7.90812L67.833 8.47371L72.8334 12.8068L71.3347 19.25L76.9997 15.8327L82.6647 19.25Z" fill="#6E38F7"/>
<path d="M60.6647 19.25L59.1659 12.8068L64.1663 8.47371L57.5746 7.90812L54.9997 1.83337L52.4248 7.90812L45.833 8.47371L50.8334 12.8068L49.3347 19.25L54.9997 15.8327L60.6647 19.25Z" fill="#6E38F7"/>
<path d="M38.6647 19.25L37.1659 12.8068L42.1663 8.47371L35.5746 7.90812L32.9997 1.83337L30.4248 7.90812L23.833 8.47371L28.8334 12.8068L27.3347 19.25L32.9997 15.8327L38.6647 19.25Z" fill="#6E38F7"/>
<path d="M16.6647 19.25L15.1659 12.8068L20.1663 8.47371L13.5746 7.90812L10.9997 1.83337L8.42476 7.90812L1.83301 8.47371L6.83342 12.8068L5.33467 19.25L10.9997 15.8327L16.6647 19.25Z" fill="#6E38F7"/>
</svg>
